# xmcd
#
# Track frame offsets: 
#        150
#        16622
#        31277
#        44267
#        56007
#        69337
#        79682
#        90747
#        100682
#        111822
#        120850
#        135317
#        151032
#        164467
#        177335
#        189955
#        200597
#        211742
#        222602
#
# Disc length: 3150 seconds
#
# Revision: 2
# Processed by: cddbd v1.5.2PL0 Copyright (c) Steve Scherf et al.
# Submitted via: ExactAudioCopy v0.99pb5
#
DISCID=ee0c4c13
DTITLE=George Jones - My Very Special Guests (Legacy Edition) - CD2
DYEAR=2005
DGENRE=Country
TTITLE0=A Good Year for the Roses ...with Alan Jackson
TTITLE1=Yesterday's Wine ...with Merle Haggard
TTITLE2=Our Love Was Ahead of Its Time ...with Deborah Allen
TTITLE3=We Sure Make Good Love ...with Loretta Lynn
TTITLE4=Size Seven Round (Made of Gold) ...with Lacy J. Dalton
TTITLE5=I Got Stripes ...with Johnny Cash
TTITLE6=Fiddle and Guitar Band ...with Charlie Daniels
TTITLE7=We Didn't See a Thing ...with Ray Charles and Chet Atkins
TTITLE8=The Love Bug ...with Vince Gill
TTITLE9=Love's Gonna Live Here ...with Buck Owens
TTITLE10=If I Could Bottle This Up ...with Shelby Lynne
TTITLE11=If You Can Touch Her at All ...with Lynn Anderson
TTITLE12=All That We've Got Left ...with Vern Gosdin
TTITLE13=This Bottle (In My Hand) ...with David Allan Coe
TTITLE14=Talking to Hank ...with Mark Chesnutt
TTITLE15=Never Bit a Bullet Like This ...with Sammy Kershaw
TTITLE16=The Race Is On ...with Travis Tritt
TTITLE17=I've Been There ...with Tim Mensy
TTITLE18=Traveller's Prayer ...with Sweethearts Of The Rodeo
EXTD=
EXTT0=
EXTT1=
EXTT2=
EXTT3=
EXTT4=
EXTT5=
EXTT6=
EXTT7=
EXTT8=
EXTT9=
EXTT10=
EXTT11=
EXTT12=
EXTT13=
EXTT14=
EXTT15=
EXTT16=
EXTT17=
EXTT18=
PLAYORDER=
